<svg version="1.1" id="algaecal" xmlns="http://www.w3.org/2000/svg" xmlns:xlink="http://www.w3.org/1999/xlink" x="0px" y="0px"
	 viewBox="0 0 1157.2 380.5" style="enable-background:new 0 0 1157.2 380.5;" xml:space="preserve">
<g>
	<path style="fill:#013B30;" d="M352.4,359.5c-36.2,0-59.5-11.5-59.5-31.9c0-16.8,12.5-26.3,26-36.2c-13.1-6.9-19.4-18.7-19.4-29.3
		c0-15.1,7.6-27,24.7-37.5c-12.8-10.2-19.7-25.3-19.7-41.7c0-29.3,22.4-56.9,60.5-56.9c17.4,0,31.9,5.3,42.4,14.5l36.8-20.4h1v27.6
		c-9.9,0-20.7,0.3-29.9,1.3c6.6,8.9,10.2,19.7,10.2,31.6c0,29.9-22.7,56.9-60.5,56.9c-12.8,0-23.7-2.6-32.5-7.2
		c-9.2,5.6-14.5,11.8-14.5,20.4c0,13.8,10.8,17.4,33.2,17.4h30.6c39.4,0,56.9,14.5,56.9,37.5C438.5,343.1,401.1,359.5,352.4,359.5z
		 M414.2,315.8c0-12.2-6.6-19.1-32.5-19.1h-38.1c-5.6,0-10.8-0.7-15.4-2c-10.8,8.5-14.1,16.4-14.1,27c0,16.1,9.2,23.3,45,23.3
		C392.5,345.1,414.2,333.2,414.2,315.8z M364.9,225.1c17.1,0,28.9-10.8,28.9-44.4c0-33.2-11.8-42.1-28.9-42.1
		c-18.1,0-29.6,11.5-29.6,44.4S346.8,225.1,364.9,225.1z"/>
</g>
<g>
	<path style="fill:#013B30;" d="M536.2,254.3c-6.9,13.1-22,26.6-45,26.6c-27.3,0-42.7-12.5-42.7-35.5c0-27.3,19.1-37.8,50-43.7
		l37.8-7.2v-16.8c0-24-16.1-34.5-33.9-34.5c-18.1,0-33.2,11.2-34.8,29.9h-7.9c1.6-31.2,21.7-47,51-47c37.5,0,54.9,24.7,54.9,51.6
		v99.6h-29.3V254.3z M536.2,234.9v-29.3l-25,4.9c-21.4,4.3-32.9,11.8-32.9,32.5c0,14.1,7.6,23.3,23.3,23.3
		C519.4,266.5,536.2,247.4,536.2,234.9z"/>
</g>
<g>
	<path style="fill:#013B30;" d="M152.2,211.3H70.7l-26.3,66.1H24.3l89.4-218.6h11.2l90.7,218.6h-36.5L152.2,211.3z M110.8,109.4
		l-33.5,85.5h68.4L110.8,109.4z"/>
</g>
<path style="fill:#013B30;" d="M268.9,277.4h-29.6V40.7h29.6V277.4z"/>
<g>
	<path style="fill:#013B30;" d="M1122.4,277.4h-29.6V40.7h29.6V277.4z"/>
</g>
<path style="fill:#013B30;" d="M1029.9,254.3c-6.9,13.1-22,26.6-45,26.6c-27.3,0-42.7-12.5-42.7-35.5c0-27.3,19.1-37.8,50-43.7
	l37.8-7.2v-16.8c0-24-16.1-34.5-33.9-34.5c-18.1,0-33.2,11.2-34.8,29.9h-7.9c1.6-31.2,21.7-47,51-47c37.5,0,54.9,24.7,54.9,51.6
	v99.6h-29.3V254.3z M1029.9,234.9v-29.3l-25,4.9c-21.4,4.3-32.9,11.8-32.9,32.5c0,14.1,7.6,23.3,23.3,23.3
	C1013.1,266.5,1029.9,247.4,1029.9,234.9z"/>
<g>
	<path style="fill:#013B30;" d="M779.4,171.2c0,66.7,28.9,93,69.4,93c31.9,0,56.2-16.8,61.1-48H923c-5.9,41.1-37.5,64.4-78.9,64.4
		c-62.8,0-99.9-45.7-99.9-109.5c0-63.4,35.5-114.1,96-114.1c41.7,0,74.6,23.3,80.5,64.4h-13.1c-6.2-31.2-31.6-48-62.5-48
		C806.6,73.5,779.4,97.9,779.4,171.2z"/>
</g>
<path style="fill:#013B30;" d="M662.4,281c-43.1,0-73-27-73-76.6c0.3-42.4,26.6-78.2,68.7-78.2c42.4,0,66.4,29.6,66.4,73H621v2.6
	c0,49.6,22.7,62.1,48.3,62.1c18.7,0,40.1-8.9,44.4-34.2h8.2C720.3,257,697.9,281,662.4,281z M621.6,187.3h71
	c0-34.2-12.8-47.3-32.2-47.3C640.4,139.9,624.6,151.1,621.6,187.3z"/>
<circle style="fill:none;stroke:#027D61;stroke-width:12;stroke-miterlimit:10;" cx="659.1" cy="58.5" r="25.5"/>
</svg>
